<?xml version="1.0" encoding="UTF-8" standalone="no"?>
<svg
   xmlns:dc="http://purl.org/dc/elements/1.1/"
   xmlns:cc="http://creativecommons.org/ns#"
   xmlns:rdf="http://www.w3.org/1999/02/22-rdf-syntax-ns#"
   xmlns:svg="http://www.w3.org/2000/svg"
   xmlns="http://www.w3.org/2000/svg"
   width="104.25001mm"
   height="104.25001mm"
   viewBox="0 -115.2299 104.25001 104.25"
   version="1.1"
   style="fill:none;stroke-linecap:round;stroke-linejoin:round"
   id="svg190">
  <metadata
     id="metadata196">
    <rdf:RDF>
      <cc:Work
         rdf:about="">
        <dc:format>image/svg+xml</dc:format>
        <dc:type
           rdf:resource="http://purl.org/dc/dcmitype/StillImage" />
        <dc:title></dc:title>
      </cc:Work>
    </rdf:RDF>
  </metadata>
  <defs
     id="defs194" />
  <path
     id="path142"
     style="stroke:#000000;stroke-width:0.25;fill:#ffffff;fill-opacity:1"
     d="m 0.125,-11.1049 v -28 a 21.15,21.15 0 0 1 1.5985,-8.0363 21.0271,21.0271 0 0 1 4.5523,-6.8129 21.0354,21.0354 0 0 1 6.8129,-4.5523 21.1418,21.1418 0 0 1 8.0363,-1.5985 h 28 v 28 a 21.15,21.15 0 0 1 -1.5985,8.0364 21.0271,21.0271 0 0 1 -4.5523,6.8129 21.0354,21.0354 0 0 1 -6.8129,4.5522 21.1418,21.1418 0 0 1 -8.0363,1.5985 z" />
  <path
     id="path146"
     style="stroke:#000000;stroke-width:0.25;fill:#ffffff;fill-opacity:1"
     d="m 104.125,-115.1049 h -28 a 21.15,21.15 0 0 0 -8.0363,1.5985 21.0271,21.0271 0 0 0 -6.8129,4.5523 21.0354,21.0354 0 0 0 -4.5523,6.8129 21.1418,21.1418 0 0 0 -1.5985,8.0363 v 28 h 28 a 21.15,21.15 0 0 0 8.0363,-1.5985 21.0271,21.0271 0 0 0 6.8129,-4.5522 21.0354,21.0354 0 0 0 4.5523,-6.8129 21.1418,21.1418 0 0 0 1.5985,-8.0364 z" />
  <path
     id="path148"
     style="stroke:#000000;stroke-width:0.25;fill:#ffffff;fill-opacity:1"
     d="m 104.125,-11.1049 h -28 a 21.15,21.15 0 0 1 -8.0363,-1.5985 21.0271,21.0271 0 0 1 -6.8129,-4.5522 21.0354,21.0354 0 0 1 -4.5523,-6.8129 21.1418,21.1418 0 0 1 -1.5985,-8.0364 v -28 h 28 a 21.15,21.15 0 0 1 8.0363,1.5985 21.0271,21.0271 0 0 1 6.8129,4.5523 21.0354,21.0354 0 0 1 4.5523,6.8129 21.1418,21.1418 0 0 1 1.5985,8.0363 z" />
  <path
     id="path150"
     style="stroke:#000000;stroke-width:0.25;fill:#ffffff;fill-opacity:1"
     d="m 0.125,-115.1049 h 28 a 21.15,21.15 0 0 1 8.0363,1.5985 21.0271,21.0271 0 0 1 6.8129,4.5523 21.0354,21.0354 0 0 1 4.5523,6.8129 21.1418,21.1418 0 0 1 1.5985,8.0363 v 28 h -28 a 21.15,21.15 0 0 1 -8.0363,-1.5985 21.0271,21.0271 0 0 1 -6.8129,-4.5522 21.0354,21.0354 0 0 1 -4.5523,-6.8129 21.1418,21.1418 0 0 1 -1.5985,-8.0364 z" />
  <path
     id="path2"
     d="m 21.124751,-58.104766 a 19.1283,19.1283 0 0 0 -7.270874,1.445909 19.032,19.032 0 0 0 -6.1639644,4.119128 19.0245,19.0245 0 0 0 -4.1186114,6.163963 19.1357,19.1357 0 0 0 -1.4464234,7.270874 v 25.999963 H 28.124839 a 19.1283,19.1283 0 0 0 7.27139,-1.446424 19.032,19.032 0 0 0 6.163966,-4.11861 19.0245,19.0245 0 0 0 4.118613,-6.163966 19.1357,19.1357 0 0 0 1.446421,-7.270874 v -25.999963 z m -6.499862,5.999636 a 2.5,2.5 0 0 1 2.500106,2.500104 2.5,2.5 0 0 1 -2.500106,2.500106 2.5,2.5 0 0 1 -2.500105,-2.500106 2.5,2.5 0 0 1 2.500105,-2.500104 z m 8.000028,0 a 2.5,2.5 0 0 1 2.500106,2.500104 2.5,2.5 0 0 1 -2.500106,2.500106 2.5,2.5 0 0 1 -2.500105,-2.500106 2.5,2.5 0 0 1 2.500105,-2.500104 z m 8.000028,0 a 2.5,2.5 0 0 1 2.500106,2.500104 2.5,2.5 0 0 1 -2.500106,2.500106 2.5,2.5 0 0 1 -2.500106,-2.500106 2.5,2.5 0 0 1 2.500106,-2.500104 z m 8.000029,0 a 2.5,2.5 0 0 1 2.500106,2.500104 2.5,2.5 0 0 1 -2.500106,2.500106 2.5,2.5 0 0 1 -2.500106,-2.500106 2.5,2.5 0 0 1 2.500106,-2.500104 z m -27.99984,9.500192 a 2.5,2.5 0 0 1 2.500106,2.500106 2.5,2.5 0 0 1 -2.500106,2.500106 2.5,2.5 0 0 1 -2.500106,-2.500106 2.5,2.5 0 0 1 2.500106,-2.500106 z m 8.000028,0 a 2.5,2.5 0 0 1 2.499589,2.500106 2.5,2.5 0 0 1 -2.499589,2.500106 2.5,2.5 0 0 1 -2.500106,-2.500106 2.5,2.5 0 0 1 2.500106,-2.500106 z m 8.000027,0 a 2.5,2.5 0 0 1 2.49959,2.500106 2.5,2.5 0 0 1 -2.49959,2.500106 2.5,2.5 0 0 1 -2.500105,-2.500106 2.5,2.5 0 0 1 2.500105,-2.500106 z m 8.000029,0 a 2.5,2.5 0 0 1 2.49959,2.500106 2.5,2.5 0 0 1 -2.49959,2.500106 2.5,2.5 0 0 1 -2.500106,-2.500106 2.5,2.5 0 0 1 2.500106,-2.500106 z m -20.000329,9.500198 a 2.5,2.5 0 0 1 2.500106,2.499587 2.5,2.5 0 0 1 -2.500106,2.500106 2.5,2.5 0 0 1 -2.500105,-2.500106 2.5,2.5 0 0 1 2.500105,-2.499587 z m 8.000028,0 a 2.5,2.5 0 0 1 2.500106,2.499587 2.5,2.5 0 0 1 -2.500106,2.500106 2.5,2.5 0 0 1 -2.500105,-2.500106 2.5,2.5 0 0 1 2.500105,-2.499587 z m 8.000028,0 a 2.5,2.5 0 0 1 2.500106,2.499587 2.5,2.5 0 0 1 -2.500106,2.500106 2.5,2.5 0 0 1 -2.500106,-2.500106 2.5,2.5 0 0 1 2.500106,-2.499587 z m 8.000029,0 a 2.5,2.5 0 0 1 2.500106,2.499587 2.5,2.5 0 0 1 -2.500106,2.500106 2.5,2.5 0 0 1 -2.500106,-2.500106 2.5,2.5 0 0 1 2.500106,-2.499587 z m -27.99984,9.499676 a 2.5,2.5 0 0 1 2.500106,2.500106 2.5,2.5 0 0 1 -2.500106,2.500106 2.5,2.5 0 0 1 -2.500106,-2.500106 2.5,2.5 0 0 1 2.500106,-2.500106 z m 8.000028,0 a 2.5,2.5 0 0 1 2.499589,2.500106 2.5,2.5 0 0 1 -2.499589,2.500106 2.5,2.5 0 0 1 -2.500106,-2.500106 2.5,2.5 0 0 1 2.500106,-2.500106 z m 8.000027,0 a 2.5,2.5 0 0 1 2.49959,2.500106 2.5,2.5 0 0 1 -2.49959,2.500106 2.5,2.5 0 0 1 -2.500105,-2.500106 2.5,2.5 0 0 1 2.500105,-2.500106 z m 8.000029,0 a 2.5,2.5 0 0 1 2.49959,2.500106 2.5,2.5 0 0 1 -2.49959,2.500106 2.5,2.5 0 0 1 -2.500106,-2.500106 2.5,2.5 0 0 1 2.500106,-2.500106 z"
     style="fill:#8a022a;fill-opacity:1;stroke:#000000;stroke-width:0.25" />
  <circle
     transform="scale(1,-1)"
     id="circle4"
     style="fill:#072e5e;fill-opacity:1;stroke:#000000;stroke-width:0.25"
     r="2.5"
     cy="36.6049"
     cx="92.625" />
  <circle
     transform="scale(1,-1)"
     id="circle6"
     style="fill:#072e5e;fill-opacity:1;stroke:#000000;stroke-width:0.25"
     r="2.5"
     cy="46.6049"
     cx="81.625" />
  <path
     id="path40"
     style="fill:#d88111;fill-opacity:1;stroke:#000000;stroke-width:0.25"
     d="m 2.125,-104.1049 v 17 a 19.1357,19.1357 0 0 0 1.4463,7.271 19.0245,19.0245 0 0 0 4.1187,6.1641 19.032,19.032 0 0 0 6.164,4.1186 19.1283,19.1283 0 0 0 7.271,1.4463 h 26 v -26 a 19.1357,19.1357 0 0 0 -1.4463,-7.271 19.0245,19.0245 0 0 0 -4.1187,-6.164 19.032,19.032 0 0 0 -6.164,-4.1187 19.1283,19.1283 0 0 0 -7.271,-1.4463 h -17 l 4.9134,4.9134 a 9.04323,9.04323 0 0 1 2.9781,0.507 9.02508,9.02508 0 0 1 2.6425,1.4639 8.99433,8.99433 0 0 1 2.0093,2.2558 9.04885,9.04885 0 0 1 1.1496,2.7936 l 13.38,1.8229 a 2.47475,2.47475 0 0 1 0.8369,0.2777 2.45332,2.45332 0 0 1 0.692,0.5447 2.46533,2.46533 0 0 1 0.4486,0.7579 2.43755,2.43755 0 0 1 0.1648,0.8663 l 0.0466,15.6813 a 1.75886,1.75886 0 0 1 -0.4795,1.1936 1.726,1.726 0 0 1 -1.175,0.5234 1.72465,1.72465 0 0 1 -1.208,-0.4421 1.75932,1.75932 0 0 1 -0.5597,-1.1581 l -0.9222,-14.1125 -11.5177,-0.9782 -0.0869,0.2353 a 8.83572,8.83572 0 0 1 -0.2994,0.69 8.97202,8.97202 0 0 1 -1.0678,1.6939 l -0.1592,0.1939 a 1.15353,1.15353 0 0 1 -0.0611,0.0715 7.72961,7.72961 0 0 1 -0.2195,0.2452 2.49293,2.49293 0 0 1 -0.1132,0.1195 4.04176,4.04176 0 0 1 -0.1153,0.1175 l -0.1798,0.1748 a 8.83559,8.83559 0 0 1 -0.5677,0.4935 8.97206,8.97206 0 0 1 -1.6939,1.0677 l -0.2273,0.1062 a 1.15353,1.15353 0 0 1 -0.0859,0.0383 7.72945,7.72945 0 0 1 -0.3039,0.1265 2.49293,2.49293 0 0 1 -0.1536,0.0591 4.04176,4.04176 0 0 1 -0.1546,0.0562 l 0.9782,11.5178 14.1124,0.9221 a 1.75886,1.75886 0 0 1 1.1582,0.5597 1.726,1.726 0 0 1 0.4421,1.208 1.72465,1.72465 0 0 1 -0.5234,1.1751 1.75932,1.75932 0 0 1 -1.1936,0.4794 l -15.6814,-0.0466 a 2.47475,2.47475 0 0 1 -0.8662,-0.1648 2.45332,2.45332 0 0 1 -0.7579,-0.4485 2.46533,2.46533 0 0 1 -0.5447,-0.6921 2.43754,2.43754 0 0 1 -0.2777,-0.8369 l -1.8229,-13.3799 a 9.04321,9.04321 0 0 1 -2.7936,-1.1497 9.02509,9.02509 0 0 1 -2.2558,-2.0093 8.99435,8.99435 0 0 1 -1.4639,-2.6425 9.04883,9.04883 0 0 1 -0.507,-2.9781 z" />
  <path
     id="path42"
     style="fill:#d88111;fill-opacity:1;stroke:#000000;stroke-width:0.25"
     d="m 7.125,-113.1049 h -5 v 5 l 5.561,5.5611 0.0847,-0.2037 0.0896,-0.2015 a 8.99446,8.99446 0 0 1 0.407,-0.7823 1.6727,1.6727 0 0 1 0.0562,-0.0948 2.49656,2.49656 0 0 1 0.0864,-0.1411 4.02429,4.02429 0 0 1 0.0891,-0.1393 l -4.374,-6.9984 6.9984,4.374 0.1862,-0.1182 0.189,-0.1135 a 8.99473,8.99473 0 0 1 0.7823,-0.407 1.6727,1.6727 0 0 1 0.1005,-0.0454 2.49656,2.49656 0 0 1 0.1517,-0.0658 4.02429,4.02429 0 0 1 0.1529,-0.063 z" />
  <path
     id="path44"
     style="fill:#d88111;fill-opacity:1;stroke:#000000;stroke-width:0.25"
     d="m 19.9275,-95.3024 a 5.5377,5.5377 0 0 0 1.1922,-1.7843 5.52736,5.52736 0 0 0 0.4187,-2.1048 5.49968,5.49968 0 0 0 -0.4187,-2.1048 5.51351,5.51351 0 0 0 -1.1922,-1.7843 5.5197,5.5197 0 0 0 -1.7844,-1.1922 5.54988,5.54988 0 0 0 -2.1047,-0.4187 5.4765,5.4765 0 0 0 -2.1048,0.4187 5.54181,5.54181 0 0 0 -1.7843,1.1922 5.5377,5.5377 0 0 0 -1.1923,1.7843 5.52736,5.52736 0 0 0 -0.4186,2.1048 5.49968,5.49968 0 0 0 0.4186,2.1048 5.51351,5.51351 0 0 0 1.1923,1.7843 5.5197,5.5197 0 0 0 1.7843,1.1922 5.54988,5.54988 0 0 0 2.1048,0.4187 5.4765,5.4765 0 0 0 2.1047,-0.4187 5.54181,5.54181 0 0 0 1.7844,-1.1922" />
  <path
     id="path46"
     style="fill:#a7c43e;fill-opacity:1;stroke:#000000;stroke-width:0.25"
     d="m 63.625,-68.1049 h -6.5 v -14 l 10.0578,5.8671 -0.4412,1.0182 -1.5322,3.5688 -0.3853,0.8913 -0.2918,0.6673 -0.0275,0.0625 -0.2146,0.4836 -0.1628,0.362 -0.1233,0.2708 -0.0466,0.1015 a 30.1622,30.1622 0 0 1 -0.3325,0.7069" />
  <path
     id="path48"
     style="fill:#a7c43e;fill-opacity:1;stroke:#000000;stroke-width:0.25"
     d="m 57.3434,-96.9775 -0.0511,0.3569 -0.0443,0.3577 c -0.05461,0.477544 -0.09107,0.95699 -0.1093,1.4373 -0.0035,0.05997 -0.0055,0.120025 -0.006,0.1801 -0.002,0.04504 -0.0031,0.09012 -0.0034,0.1352 -0.0024,0.06754 -0.0034,0.135119 -0.0032,0.2027 -0.0012,0.06756 -0.0015,0.135131 -0.0011,0.2027 v 7.5 l 11.643,6.7918 0.2354,-0.5176 0.2219,-0.4847 0.1045,-0.2271 0.2033,-0.4394 c 0.509502,-1.097937 1.030096,-2.190693 1.5617,-3.2781 0.133069,-0.271759 0.266936,-0.543127 0.4016,-0.8141 l 0.3043,-0.609 0.4617,-0.9109 0.4682,-0.9076 -15.3872,-8.9759" />
  <path
     id="path50"
     style="fill:#a7c43e;fill-opacity:1;stroke:#000000;stroke-width:0.25"
     d="m 58.3786,-100.8921 a 20.4082,20.4082 0 0 1 0.5273,-1.2431 l 0.0721,-0.1526 a 19.9001,19.9001 0 0 1 0.5421,-1.0497 18.904,18.904 0 0 1 3.2564,-4.287 1.20461,1.20461 0 0 1 0.0602,-0.0592 19.0389,19.0389 0 0 1 1.9894,-1.6965 l 15.3896,8.9773 a 81.4151,81.4151 0 0 0 -1.5003,2.1818 97.2405,97.2405 0 0 0 -2.1302,3.3518 111.859,111.859 0 0 0 -2.0003,3.4309 z" />
  <path
     id="path52"
     style="fill:#a7c43e;fill-opacity:1;stroke:#000000;stroke-width:0.25"
     d="m 92.125,-113.1049 h -16 a 18.5861,18.5861 0 0 0 -1.8636,0.0919 18.9542,18.9542 0 0 0 -3.6556,0.7276 19.4181,19.4181 0 0 0 -1.7567,0.6289 l 13.7802,8.0384 a 5.4016,5.4016 0 0 1 0.131,-0.1645 58.0017,58.0017 0 0 1 1.049,-1.2807 63.0662,63.0662 0 0 1 1.914,-2.1752 l 0.3705,-0.3975 a 53.4846,53.4846 0 0 1 1.423,-1.4582 50.9421,50.9421 0 0 1 2.2386,-2.0805 44.818,44.818 0 0 1 2.3696,-1.9302" />
  <path
     id="path54"
     style="fill:#a7c43e;fill-opacity:1;stroke:#000000;stroke-width:0.25"
     d="m 102.125,-95.9408 v 8.8359 l -0.004,0.3761 -0.0112,0.3759 a 18.9929,18.9929 0 0 1 -0.1189,1.4992 2.43439,2.43439 0 0 1 -0.0114,0.0934 3.52975,3.52975 0 0 1 -0.021,0.1632 3.52831,3.52831 0 0 1 -0.0167,0.1223 5.26878,5.26878 0 0 1 -0.0265,0.1832 8.49808,8.49808 0 0 1 -0.0283,0.1829 L 81.2649,-96.1384 a 79.3775,79.3775 0 0 1 0.7369,-1.0815 59.7188,59.7188 0 0 1 1.341,-1.8566 53.844,53.844 0 0 1 2.145,-2.6832 1.43218,1.43218 0 0 1 0.0698,-0.0816 48.1004,48.1004 0 0 1 1.1042,-1.2451 40.3089,40.3089 0 0 1 1.1477,-1.2051 z" />
  <path
     id="path56"
     style="fill:#a7c43e;fill-opacity:1;stroke:#000000;stroke-width:0.25"
     d="m 100.9112,-80.4227 a 19.2968,19.2968 0 0 1 -1.0106,2.2371 18.9207,18.9207 0 0 1 -2.8384,3.993 18.6781,18.6781 0 0 1 -1.7807,1.6897 L 74.7132,-84.5011 a 1.6076,1.6076 0 0 1 0.0331,-0.068 1.59757,1.59757 0 0 1 0.0329,-0.0676 1.58772,1.58772 0 0 1 0.0327,-0.067 121.853,121.853 0 0 1 2.152,-4.2124 l 0.2809,-0.5203 a 86.1576,86.1576 0 0 1 1.0067,-1.8083 l 0.2577,-0.4487 a 1.49924,1.49924 0 0 1 0.0486,-0.084 23.8329,23.8329 0 0 1 0.183,-0.3145 l 0.1381,-0.2354 0.4186,-0.7034 z" />
  <path
     id="path58"
     style="fill:#a7c43e;fill-opacity:1;stroke:#000000;stroke-width:0.25"
     d="m 102.125,-100.5413 v -12.5636 a 29.6179,29.6179 0 0 0 -3.0317,1.05 30.3147,30.3147 0 0 0 -4.2922,2.1684 34.2097,34.2097 0 0 0 -2.0089,1.3241 32.6255,32.6255 0 0 0 -0.9676,0.7151 l -0.238,0.1839 -0.1775,0.1392 -0.1326,0.1052 -0.3946,0.3192 z" />
  <path
     id="path60"
     style="fill:#a7c43e;fill-opacity:1;stroke:#000000;stroke-width:0.25"
     d="m 91.9698,-70.2891 a 19.0429,19.0429 0 0 1 -2.0956,0.9445 18.9303,18.9303 0 0 1 -4.4548,1.1002 18.9231,18.9231 0 0 1 -2.2944,0.1395 h -15.5 l 0.6645,-1.6556 0.2924,-0.7237 a 343.591,343.591 0 0 1 2.2392,-5.4083 2.78289,2.78289 0 0 1 0.0358,-0.0842 2.74125,2.74125 0 0 1 0.0353,-0.0828 206.531,206.531 0 0 1 2.2882,-5.1901 z" />
  <path
     id="path62"
     style="fill:#072e5e;fill-opacity:1;stroke:#000000;stroke-width:0.25"
     d="m 81.125,-13.1049 h -4 v -24.427 l -10,-5 v -10.2815 a 5.47094,5.47094 0 0 0 1.6012,-0.7585 5.48287,5.48287 0 0 0 1.2863,-1.2164 5.45288,5.45288 0 0 0 0.8195,-1.5692 5.45474,5.45474 0 0 0 0.293,-1.7474 h 9 v 6.2085 a 5.51963,5.51963 0 0 0 -1.7547,0.8686 5.55526,5.55526 0 0 0 -1.3512,1.417 5.44689,5.44689 0 0 0 -0.7601,1.8057 5.49929,5.49929 0 0 0 -0.0816,1.9574 5.58026,5.58026 0 0 0 1.8361,3.391 5.50474,5.50474 0 0 0 1.6848,0.9989 5.51011,5.51011 0 0 0 1.9267,0.3529 5.56062,5.56062 0 0 0 3.6115,-1.3518 5.54253,5.54253 0 0 0 1.2205,-1.5318 5.5325,5.5325 0 0 0 0.6156,-1.8592 5.52078,5.52078 0 0 0 -0.8417,-3.7632 5.61369,5.61369 0 0 0 -1.3512,-1.417 5.50521,5.50521 0 0 0 -1.7547,-0.8685 v -6.2085 a 19.1357,19.1357 0 0 1 7.271,1.4463 19.0245,19.0245 0 0 1 6.164,4.1187 19.032,19.032 0 0 1 4.1187,6.164 19.1283,19.1283 0 0 1 1.4463,7.271 v 26 h -18 v -9 h 10 v -9.2085 a 5.51963,5.51963 0 0 0 1.7547,-0.8685 5.55526,5.55526 0 0 0 1.3512,-1.417 5.44689,5.44689 0 0 0 0.7601,-1.8057 5.49929,5.49929 0 0 0 0.0816,-1.9575 5.58026,5.58026 0 0 0 -1.8361,-3.391 5.50474,5.50474 0 0 0 -1.6848,-0.9989 5.51011,5.51011 0 0 0 -1.9267,-0.3529 5.56062,5.56062 0 0 0 -3.6115,1.3518 5.54253,5.54253 0 0 0 -1.2205,1.5318 5.5325,5.5325 0 0 0 -0.6156,1.8592 5.52078,5.52078 0 0 0 0.8417,3.7632 5.61369,5.61369 0 0 0 1.3512,1.417 5.50521,5.50521 0 0 0 1.7547,0.8685 v 6.2085 h -10 z" />
  <path
     id="path64"
     style="fill:#072e5e;fill-opacity:1;stroke:#000000;stroke-width:0.25"
     d="m 68.125,-58.1049 h -5 a 2.49995,2.49995 0 0 0 0.1955,0.9546 2.56177,2.56177 0 0 0 0.5367,0.8132 2.45494,2.45494 0 0 0 0.8117,0.5405 2.51839,2.51839 0 0 0 0.9561,0.1917 2.51949,2.51949 0 0 0 1.7678,-0.7322 2.5728,2.5728 0 0 0 0.7322,-1.7678" />
  <path
     id="path66"
     style="fill:#072e5e;fill-opacity:1;stroke:#000000;stroke-width:0.25"
     d="m 74.125,-13.2104 a 19.1246,19.1246 0 0 1 -6.6352,-1.9701 18.9948,18.9948 0 0 1 -5.4892,-4.2161 19.0541,19.0541 0 0 1 -3.6149,-5.9026 19.1049,19.1049 0 0 1 -1.2607,-6.8057 v -26 h 3 a 5.47093,5.47093 0 0 0 0.293,1.7474 5.48288,5.48288 0 0 0 0.8195,1.5692 5.45288,5.45288 0 0 0 1.2863,1.2164 5.45474,5.45474 0 0 0 1.6012,0.7585 v 12.1356 l 10,5 v 22.5729" />
  <path
     id="path144"
     style="stroke:#000000;stroke-width:0.25"
     d="m 104.125,-11.1049 v -28 a 21.15,21.15 0 0 0 -1.5985,-8.0363 21.0271,21.0271 0 0 0 -4.5523,-6.8129 21.0354,21.0354 0 0 0 -6.8129,-4.5523 21.1418,21.1418 0 0 0 -8.0363,-1.5985 h -28 v 28 a 21.15,21.15 0 0 0 1.5985,8.0364 21.0271,21.0271 0 0 0 4.5523,6.8129 21.0354,21.0354 0 0 0 6.8129,4.5522 21.1418,21.1418 0 0 0 8.0363,1.5985 z" />
  <path
     id="path1023"
     d="M 18.412805,-68.50357 C 11.610882,-69.571841 6.037544,-74.044799 3.5813376,-80.406766 3.3193935,-81.085245 2.953487,-82.255645 2.7682122,-83.00766 l -0.3368633,-1.367295 -0.044182,-9.623303 -0.044182,-9.623302 2.2804357,2.27439 2.2804354,2.274385 v 0.598303 c 0,2.094624 1.4897673,4.955465 3.349714,6.432551 0.794109,0.630645 2.548225,1.539368 3.25005,1.683695 0.232455,0.0478 0.422645,0.162175 0.422645,0.254159 0,0.09199 0.409241,3.164582 0.909425,6.827997 0.562977,4.123322 0.989575,6.829658 1.11982,7.104129 0.279443,0.58888 0.969768,1.179121 1.57594,1.347456 0.318998,0.08859 3.386434,0.136496 8.749054,0.136652 8.011328,2.6e-4 8.270485,-0.0075 8.681668,-0.258175 0.921089,-0.561596 1.217475,-1.75886 0.647317,-2.614877 -0.559332,-0.839761 -0.542086,-0.836964 -8.276547,-1.342448 -3.891445,-0.254325 -7.091183,-0.478239 -7.110531,-0.497588 -0.02989,-0.02989 -0.96609,-10.762553 -0.964777,-11.060247 2.61e-4,-0.05729 0.213194,-0.193054 0.473202,-0.301692 1.731655,-0.723532 3.627492,-2.527107 4.434589,-4.218779 0.488414,-1.023712 0.490551,-1.025908 0.944678,-0.969746 0.250335,0.03096 2.781329,0.248117 5.62443,0.482572 l 5.169273,0.426282 0.0013,0.392098 c 7.94e-4,0.215653 0.203912,3.449473 0.451474,7.186266 0.487588,7.359811 0.486389,7.352437 1.27657,7.848772 0.592979,0.372467 1.769845,0.293483 2.251935,-0.151136 0.71116,-0.655891 0.700262,-0.514503 0.700262,-9.084376 0,-5.327793 -0.04753,-8.156665 -0.144836,-8.619633 -0.116866,-0.55604 -0.263631,-0.804727 -0.75991,-1.28764 -0.338291,-0.329177 -0.755904,-0.633341 -0.928031,-0.67592 -0.172127,-0.04258 -3.151182,-0.4627 -6.620123,-0.9336 -3.468942,-0.47091 -6.494646,-0.88962 -6.72379,-0.93047 -0.366158,-0.0653 -0.442924,-0.15537 -0.633724,-0.74368 -0.452493,-1.39519 -1.117697,-2.45446 -2.268429,-3.61227 -0.940367,-0.94614 -1.308279,-1.21531 -2.344494,-1.71526 -1.156604,-0.55803 -2.744546,-0.9988 -3.598318,-0.9988 -0.299002,0 -0.773177,-0.40987 -2.638886,-2.28099 l -2.274344,-2.281 9.428234,0.0483 c 8.951253,0.0458 9.490971,0.0619 10.668277,0.31775 3.877476,0.84262 6.88881,2.47691 9.625472,5.22388 2.271318,2.27988 3.726685,4.64925 4.661133,7.588442 0.873183,2.746482 0.834482,1.986359 0.887126,17.425086 l 0.04778,14.012306 -13.757673,-0.01286 c -10.350563,-0.0097 -14.015319,-0.05333 -14.79803,-0.176257 z"
     style="fill:#d88111;fill-opacity:0;stroke-width:0.13004455" />
  <path
     id="path1025"
     d="M 18.412805,-68.50357 C 11.610882,-69.571841 6.037544,-74.044799 3.5813376,-80.406766 3.3193935,-81.085245 2.953487,-82.255645 2.7682122,-83.00766 l -0.3368633,-1.367295 -0.044182,-9.623303 -0.044182,-9.623302 2.2804357,2.27439 2.2804354,2.274385 v 0.598303 c 0,2.094624 1.4897673,4.955465 3.349714,6.432551 0.794109,0.630645 2.548225,1.539368 3.25005,1.683695 0.232455,0.0478 0.422645,0.162175 0.422645,0.254159 0,0.09199 0.409241,3.164582 0.909425,6.827997 0.562977,4.123322 0.989575,6.829658 1.11982,7.104129 0.279443,0.58888 0.969768,1.179121 1.57594,1.347456 0.318998,0.08859 3.386434,0.136496 8.749054,0.136652 8.011328,2.6e-4 8.270485,-0.0075 8.681668,-0.258175 0.921089,-0.561596 1.217475,-1.75886 0.647317,-2.614877 -0.559332,-0.839761 -0.542086,-0.836964 -8.276547,-1.342448 -3.891445,-0.254325 -7.091183,-0.478239 -7.110531,-0.497588 -0.02989,-0.02989 -0.96609,-10.762553 -0.964777,-11.060247 2.61e-4,-0.05729 0.213194,-0.193054 0.473202,-0.301692 1.731655,-0.723532 3.627492,-2.527107 4.434589,-4.218779 0.488414,-1.023712 0.490551,-1.025908 0.944678,-0.969746 0.250335,0.03096 2.781329,0.248117 5.62443,0.482572 l 5.169273,0.426282 0.0013,0.392098 c 7.94e-4,0.215653 0.203912,3.449473 0.451474,7.186266 0.487588,7.359811 0.486389,7.352437 1.27657,7.848772 0.592979,0.372467 1.769845,0.293483 2.251935,-0.151136 0.71116,-0.655891 0.700262,-0.514503 0.700262,-9.084376 0,-5.327793 -0.04753,-8.156665 -0.144836,-8.619633 -0.116866,-0.55604 -0.263631,-0.804727 -0.75991,-1.28764 -0.338291,-0.329177 -0.755904,-0.633341 -0.928031,-0.67592 -0.172127,-0.04258 -3.151182,-0.4627 -6.620123,-0.9336 -3.468942,-0.47091 -6.494646,-0.88962 -6.72379,-0.93047 -0.366158,-0.0653 -0.442924,-0.15537 -0.633724,-0.74368 -0.452493,-1.39519 -1.117697,-2.45446 -2.268429,-3.61227 -0.940367,-0.94614 -1.308279,-1.21531 -2.344494,-1.71526 -1.156604,-0.55803 -2.744546,-0.9988 -3.598318,-0.9988 -0.299002,0 -0.773177,-0.40987 -2.638886,-2.28099 l -2.274344,-2.281 9.428234,0.0483 c 8.951253,0.0458 9.490971,0.0619 10.668277,0.31775 3.877476,0.84262 6.88881,2.47691 9.625472,5.22388 2.271318,2.27988 3.726685,4.64925 4.661133,7.588442 0.873183,2.746482 0.834482,1.986359 0.887126,17.425086 l 0.04778,14.012306 -13.757673,-0.01286 c -10.350563,-0.0097 -14.015319,-0.05333 -14.79803,-0.176257 z"
     style="fill:#d88111;fill-opacity:0;stroke-width:0.13004455" />
</svg>
